<svg width="512" height="512" viewBox="0 0 512 512" xmlns="http://www.w3.org/2000/svg">
  <!-- Elytra Logo — Hex/Wireframe — White mono for dark backgrounds -->
  <g transform="translate(256, 253)">
    <path d="M-5,-148 L-48,-132 L-82,-90 L-102,-30 L-106,30 L-94,82 L-68,125 L-34,152 L-5,160 Z" fill="#FFFFFF" opacity="0.95"/>
    <path d="M5,-148 L48,-132 L82,-90 L102,-30 L106,30 L94,82 L68,125 L34,152 L5,160 Z" fill="#FFFFFF" opacity="0.95"/>

    <!-- Left mesh -->
    <line x1="-5" y1="-148" x2="-48" y2="-132" stroke="#0B2D6E" stroke-width="1.2" opacity="0.3"/>
    <line x1="-5" y1="-148" x2="-5" y2="-60" stroke="#0B2D6E" stroke-width="1.8" opacity="0.45"/>
    <line x1="-48" y1="-132" x2="-5" y2="-60" stroke="#0B2D6E" stroke-width="1.2" opacity="0.3"/>
    <line x1="-48" y1="-132" x2="-82" y2="-90" stroke="#0B2D6E" stroke-width="1.2" opacity="0.25"/>
    <line x1="-82" y1="-90" x2="-5" y2="-60" stroke="#0B2D6E" stroke-width="1.2" opacity="0.3"/>
    <line x1="-5" y1="-60" x2="-102" y2="-30" stroke="#0B2D6E" stroke-width="1.2" opacity="0.3"/>
    <line x1="-82" y1="-90" x2="-102" y2="-30" stroke="#0B2D6E" stroke-width="1.2" opacity="0.25"/>
    <line x1="-5" y1="-60" x2="-5" y2="20" stroke="#0B2D6E" stroke-width="1.8" opacity="0.45"/>
    <line x1="-102" y1="-30" x2="-5" y2="20" stroke="#0B2D6E" stroke-width="1.2" opacity="0.3"/>
    <line x1="-102" y1="-30" x2="-106" y2="30" stroke="#0B2D6E" stroke-width="1.2" opacity="0.25"/>
    <line x1="-106" y1="30" x2="-5" y2="20" stroke="#0B2D6E" stroke-width="1.2" opacity="0.3"/>
    <line x1="-5" y1="20" x2="-5" y2="90" stroke="#0B2D6E" stroke-width="1.8" opacity="0.45"/>
    <line x1="-106" y1="30" x2="-5" y2="90" stroke="#0B2D6E" stroke-width="1.2" opacity="0.3"/>
    <line x1="-106" y1="30" x2="-94" y2="82" stroke="#0B2D6E" stroke-width="1.2" opacity="0.25"/>
    <line x1="-94" y1="82" x2="-5" y2="90" stroke="#0B2D6E" stroke-width="1.2" opacity="0.3"/>
    <line x1="-5" y1="90" x2="-5" y2="160" stroke="#0B2D6E" stroke-width="1.8" opacity="0.45"/>
    <line x1="-94" y1="82" x2="-68" y2="125" stroke="#0B2D6E" stroke-width="1.2" opacity="0.25"/>
    <line x1="-68" y1="125" x2="-5" y2="90" stroke="#0B2D6E" stroke-width="1.2" opacity="0.3"/>
    <line x1="-68" y1="125" x2="-5" y2="160" stroke="#0B2D6E" stroke-width="1.2" opacity="0.3"/>
    <line x1="-68" y1="125" x2="-34" y2="152" stroke="#0B2D6E" stroke-width="1.2" opacity="0.25"/>
    <line x1="-34" y1="152" x2="-5" y2="160" stroke="#0B2D6E" stroke-width="1.2" opacity="0.25"/>

    <!-- Right mesh -->
    <line x1="5" y1="-148" x2="48" y2="-132" stroke="#0B2D6E" stroke-width="1.2" opacity="0.3"/>
    <line x1="5" y1="-148" x2="5" y2="-60" stroke="#0B2D6E" stroke-width="1.8" opacity="0.45"/>
    <line x1="48" y1="-132" x2="5" y2="-60" stroke="#0B2D6E" stroke-width="1.2" opacity="0.3"/>
    <line x1="48" y1="-132" x2="82" y2="-90" stroke="#0B2D6E" stroke-width="1.2" opacity="0.25"/>
    <line x1="82" y1="-90" x2="5" y2="-60" stroke="#0B2D6E" stroke-width="1.2" opacity="0.3"/>
    <line x1="5" y1="-60" x2="102" y2="-30" stroke="#0B2D6E" stroke-width="1.2" opacity="0.3"/>
    <line x1="82" y1="-90" x2="102" y2="-30" stroke="#0B2D6E" stroke-width="1.2" opacity="0.25"/>
    <line x1="5" y1="-60" x2="5" y2="20" stroke="#0B2D6E" stroke-width="1.8" opacity="0.45"/>
    <line x1="102" y1="-30" x2="5" y2="20" stroke="#0B2D6E" stroke-width="1.2" opacity="0.3"/>
    <line x1="102" y1="-30" x2="106" y2="30" stroke="#0B2D6E" stroke-width="1.2" opacity="0.25"/>
    <line x1="106" y1="30" x2="5" y2="20" stroke="#0B2D6E" stroke-width="1.2" opacity="0.3"/>
    <line x1="5" y1="20" x2="5" y2="90" stroke="#0B2D6E" stroke-width="1.8" opacity="0.45"/>
    <line x1="106" y1="30" x2="5" y2="90" stroke="#0B2D6E" stroke-width="1.2" opacity="0.3"/>
    <line x1="106" y1="30" x2="94" y2="82" stroke="#0B2D6E" stroke-width="1.2" opacity="0.25"/>
    <line x1="94" y1="82" x2="5" y2="90" stroke="#0B2D6E" stroke-width="1.2" opacity="0.3"/>
    <line x1="5" y1="90" x2="5" y2="160" stroke="#0B2D6E" stroke-width="1.8" opacity="0.45"/>
    <line x1="94" y1="82" x2="68" y2="125" stroke="#0B2D6E" stroke-width="1.2" opacity="0.25"/>
    <line x1="68" y1="125" x2="5" y2="90" stroke="#0B2D6E" stroke-width="1.2" opacity="0.3"/>
    <line x1="68" y1="125" x2="5" y2="160" stroke="#0B2D6E" stroke-width="1.2" opacity="0.3"/>
    <line x1="68" y1="125" x2="34" y2="152" stroke="#0B2D6E" stroke-width="1.2" opacity="0.25"/>
    <line x1="34" y1="152" x2="5" y2="160" stroke="#0B2D6E" stroke-width="1.2" opacity="0.25"/>

    <!-- Head hexagon -->
    <polygon points="0,-178 -11,-171 -11,-159 0,-152 11,-159 11,-171" fill="#FFFFFF"/>
    <!-- Antennae -->
    <polyline points="-11,-171 -26,-184 -40,-192" fill="none" stroke="#FFFFFF" stroke-width="2.2" stroke-linecap="round" stroke-linejoin="round"/>
    <polyline points="11,-171 26,-184 40,-192" fill="none" stroke="#FFFFFF" stroke-width="2.2" stroke-linecap="round" stroke-linejoin="round"/>
    <!-- Tail chevron -->
    <polyline points="-8,166 0,180 8,166" fill="none" stroke="#FFFFFF" stroke-width="2.2" stroke-linecap="round" stroke-linejoin="round" opacity="0.7"/>
  </g>
</svg>
